<svg width="122" height="34" viewBox="0 0 122 34" fill="none" xmlns="http://www.w3.org/2000/svg">
<rect width="34.0312" height="34" rx="8.5" fill="white"/>
<g filter="url(#filter0_d)">
<path d="M10.6802 6.7998L17.0775 6.7998C22.75 6.7998 24.6093 9.83365 24.6093 12.7629C24.6093 13.7742 24.6093 15.3231 22.8269 16.6685C24.8438 17.4008 25.5232 19.8767 25.5232 21.2716C25.5232 24.166 23.6639 27.1998 17.9914 27.1998L10.6802 27.1998C9.95539 27.1998 9.45117 26.607 9.45117 25.9095L9.45117 8.09006C9.45117 7.39263 9.95539 6.7998 10.6802 6.7998Z" fill="url(#paint0_linear)"/>
<path d="M8.91992 13.0181C8.91992 12.346 9.72434 12.0006 10.2117 12.4633L14.6168 16.6461C15.0287 17.0372 15.0418 17.6895 14.6458 18.0968L10.2334 22.6356C9.75474 23.128 8.91992 22.7891 8.91992 22.1023V13.0181Z" fill="#1C347F"/>
<path d="M8.19824 12.0494C8.19824 11.3699 9.01808 11.0277 9.5012 11.5055L14.1682 16.1216C14.5718 16.5208 14.5718 17.1728 14.1682 17.572L9.50121 22.188C9.01808 22.6659 8.19824 22.3237 8.19824 21.6442V12.0494Z" fill="url(#paint1_linear)"/>
</g>
<path fill-rule="evenodd" clip-rule="evenodd" d="M54.8417 13.4036C54.8417 14.5788 54.3733 15.553 53.5579 16.0975C53.5466 16.105 53.531 16.115 53.5158 16.1247C53.494 16.1386 53.4962 16.1713 53.5197 16.1821C53.5385 16.1906 53.5582 16.1997 53.5721 16.2064C54.8016 16.7937 55.4431 17.9493 55.4431 19.4022C55.4431 22.0376 53.6778 23.611 50.6903 23.611H45.6466C45.472 23.611 45.375 23.5127 45.375 23.316V9.84382C45.375 9.64714 45.472 9.54881 45.6466 9.54881H50.6903C53.3092 9.54881 54.8417 10.9649 54.8417 13.4036ZM47.5564 21.3057C47.5564 21.395 47.6288 21.4674 47.7181 21.4674H50.6079C51.9649 21.4674 52.9261 20.8877 52.9261 19.3998C52.9261 18.1825 52.2099 17.3516 50.589 17.3516H47.7181C47.6288 17.3516 47.5564 17.424 47.5564 17.5133V21.3057ZM52.4227 13.4831C52.4227 12.2694 51.6396 11.6924 50.5891 11.6924H47.7181C47.6288 11.6924 47.5564 11.7648 47.5564 11.8541V15.1321C47.5564 15.2213 47.6288 15.2937 47.7181 15.2937H50.5891C51.6587 15.2937 52.4227 14.7366 52.4227 13.4831ZM59.5308 23.5424H57.7789C57.5977 23.5424 57.4769 23.4395 57.4769 23.2337V13.3422C57.4769 13.157 57.5977 13.0541 57.7789 13.0541H59.5308C59.712 13.0541 59.8127 13.157 59.8127 13.3422V23.2337C59.8127 23.4395 59.712 23.5424 59.5308 23.5424ZM57.7468 11.7865C57.5798 11.7689 57.4567 11.6268 57.4567 11.4589V10.6406V9.82235C57.4567 9.65449 57.5798 9.51241 57.7468 9.49482C57.9712 9.47118 58.2979 9.44434 58.6246 9.44434C58.9514 9.44434 59.2781 9.47118 59.5025 9.49482C59.6695 9.51241 59.7925 9.65449 59.7925 9.82235V10.6406V11.4589C59.7925 11.6268 59.6695 11.7689 59.5025 11.7865C59.2781 11.8101 58.9514 11.8369 58.6246 11.8369C58.2979 11.8369 57.9712 11.8101 57.7468 11.7865ZM64.5413 19.509C64.5413 20.6408 65.1052 21.2993 66.1321 21.2993C66.3133 21.2993 66.3838 21.2787 66.706 21.2582C66.9074 21.2582 67.1456 21.3903 67.196 21.5463C67.196 21.5463 67.2799 21.8619 67.2799 22.3283C67.2799 22.7946 67.196 23.1103 67.196 23.1103C67.1154 23.3103 67.1154 23.4189 66.9141 23.4395C66.5717 23.4601 66.2328 23.4807 65.9307 23.4807C63.8366 23.4807 62.2055 22.39 62.2055 19.6736V9.75459C62.2055 9.56938 62.3062 9.46649 62.5076 9.46649H64.2057C64.3668 9.46649 64.4876 9.56938 64.5078 9.73402C64.5078 9.73402 64.5158 11.9017 64.5199 12.6425C64.52 12.6645 64.5201 12.6922 64.5203 12.7212C64.5208 12.8142 64.5964 12.8894 64.6895 12.8894C64.693 12.8894 64.6963 12.8894 64.6995 12.8894C65.3583 12.8894 66.8436 12.8894 66.8436 12.8894C67.0248 12.8894 67.1063 12.977 67.1456 13.1775C67.1456 13.1775 67.2295 13.514 67.2295 14.0144C67.2295 14.5149 67.1456 14.8513 67.1456 14.8513C67.1004 15.065 67.0248 15.1394 66.8436 15.1394C66.8436 15.1394 65.3415 15.1394 64.6743 15.1394C64.6009 15.1394 64.5413 15.1994 64.5413 15.2729C64.5413 16.6849 64.5413 19.509 64.5413 19.509ZM71.5387 13.1277C71.5387 13.248 71.6607 13.3298 71.773 13.2865C71.8098 13.2722 71.8452 13.2589 71.874 13.2487C72.4231 13.0537 73.0476 12.9272 73.7134 12.9272C76.2506 12.9272 78.1232 13.7618 78.1232 17.993C78.1232 22.2242 76.1499 23.5664 73.4919 23.5664C72.183 23.5664 70.6326 23.2783 69.4445 22.8256C69.2633 22.7638 69.2029 22.6609 69.2029 22.4757V9.77174C69.2029 9.56595 69.3036 9.46306 69.5049 9.46306H71.2366C71.438 9.46306 71.5387 9.56595 71.5387 9.77174C71.5387 9.77174 71.5387 11.8368 71.5387 13.0408C71.5387 13.0655 71.5387 13.0957 71.5387 13.1277ZM73.4315 21.512C74.8813 21.512 75.7472 20.596 75.7472 18.1747C75.7472 15.7535 74.9216 14.961 73.4718 14.961C72.8247 14.961 72.2496 15.1082 71.7831 15.3527C71.7377 15.3765 71.6712 15.4157 71.6191 15.4471C71.5689 15.4773 71.5387 15.5317 71.5387 15.5903V21.1074C71.5387 21.1775 71.5819 21.2405 71.6479 21.2642C71.7121 21.2874 71.7917 21.315 71.8484 21.3309C72.3045 21.4587 72.881 21.512 73.4315 21.512ZM86.8389 12.8311H88.5907C88.772 12.8311 88.8928 12.934 88.8928 13.1192V22.3728C88.8928 22.5581 88.8122 22.6815 88.6713 22.7433C87.5235 23.2577 86.1341 23.5664 84.7246 23.5664C81.986 23.5664 80.1134 22.2288 80.1134 18.9362V13.1192C80.1134 12.934 80.2141 12.8311 80.4154 12.8311H82.1673C82.3485 12.8311 82.4492 12.934 82.4492 13.1192V18.895C82.4492 20.8294 83.2949 21.4262 84.7246 21.4262C85.2869 21.4262 85.8781 21.3673 86.3273 21.2494C86.3351 21.2473 86.3436 21.245 86.3526 21.2425C86.4755 21.2079 86.557 21.093 86.557 20.9653C86.557 18.2928 86.557 13.1192 86.557 13.1192C86.557 12.934 86.6576 12.8311 86.8389 12.8311ZM93.1717 23.5253H91.44C91.2386 23.5253 91.138 23.4224 91.138 23.2166V13.7915C91.138 13.6268 91.1984 13.5034 91.3595 13.4211C92.5274 12.9066 93.9369 12.6185 95.3666 12.6185C98.1454 12.6185 100.038 13.9355 100.038 17.2281V23.2166C100.038 23.4224 99.9375 23.5253 99.7563 23.5253H98.0044C97.8232 23.5253 97.7024 23.4224 97.7024 23.2166V17.2693C97.7024 15.3349 96.8365 14.7587 95.3666 14.7587C94.8047 14.7587 94.2021 14.828 93.748 14.9211C93.7426 14.9222 93.737 14.9234 93.7312 14.9246C93.5792 14.9569 93.4738 15.0941 93.4738 15.2495C93.4738 15.2637 93.4738 15.2771 93.4738 15.289C93.4738 17.9315 93.4738 23.2166 93.4738 23.2166C93.4738 23.4224 93.3731 23.5253 93.1717 23.5253ZM110.039 22.4312C109.012 23.172 107.885 23.5836 106.475 23.5836C103.656 23.5836 101.965 22.0196 101.965 18.0822C101.965 14.1447 103.676 12.6013 106.455 12.6013C107.623 12.6013 108.73 12.9306 109.757 13.5891C109.918 13.692 109.887 13.7991 109.838 14.0213C109.838 14.0213 109.677 14.5014 109.546 14.7072C109.415 14.913 109.052 15.256 109.052 15.256C108.887 15.3836 108.811 15.4412 108.63 15.3383C108.005 14.9679 107.26 14.7415 106.515 14.7415C105.086 14.7415 104.3 15.4824 104.3 18.0924C104.3 20.7025 105.106 21.4434 106.495 21.4434C107.26 21.4434 108.086 21.1964 108.831 20.7025C109.012 20.5996 109.052 20.5996 109.254 20.7848C109.254 20.7848 109.62 21.1621 109.761 21.3679C109.902 21.5737 110.1 22.0196 110.1 22.0196C110.166 22.2566 110.2 22.3077 110.039 22.4312ZM114.436 13.1336C114.436 13.2291 114.529 13.2955 114.62 13.267C115.17 13.0945 115.834 12.9786 116.61 12.9786C119.067 12.9786 121 14.3162 121 17.6294V23.2337C121 23.4395 120.899 23.5424 120.718 23.5424H118.966C118.785 23.5424 118.664 23.4395 118.664 23.2337V17.6912C118.664 15.7156 117.859 15.1188 116.369 15.1188C115.811 15.1188 115.253 15.1919 114.805 15.3382C114.757 15.3541 114.695 15.3783 114.635 15.4027C114.513 15.4533 114.436 15.5743 114.436 15.7069C114.436 15.7523 114.436 15.7966 114.436 15.8308C114.436 18.4127 114.436 23.2337 114.436 23.2337C114.436 23.4395 114.335 23.5424 114.134 23.5424H112.402C112.2 23.5424 112.1 23.4395 112.1 23.2337V9.82319C112.1 9.6174 112.2 9.51451 112.402 9.51451H114.134C114.335 9.51451 114.436 9.6174 114.436 9.82319C114.436 9.82319 114.436 11.8853 114.436 13.0878C114.436 13.1012 114.436 13.1169 114.436 13.1336Z" fill="white"/>
<defs>
<filter id="filter0_d" x="6.19824" y="5.7998" width="21.325" height="24.4" filterUnits="userSpaceOnUse" color-interpolation-filters="sRGB">
<feFlood flood-opacity="0" result="BackgroundImageFix"/>
<feColorMatrix in="SourceAlpha" type="matrix" values="0 0 0 0 0 0 0 0 0 0 0 0 0 0 0 0 0 0 127 0"/>
<feOffset dy="1"/>
<feGaussianBlur stdDeviation="1"/>
<feColorMatrix type="matrix" values="0 0 0 0 0 0 0 0 0 0 0 0 0 0 0 0 0 0 0.2 0"/>
<feBlend mode="normal" in2="BackgroundImageFix" result="effect1_dropShadow"/>
<feBlend mode="normal" in="SourceGraphic" in2="effect1_dropShadow" result="shape"/>
</filter>
<linearGradient id="paint0_linear" x1="25.5232" y1="6.7998" x2="9.45117" y2="6.7998" gradientUnits="userSpaceOnUse">
<stop stop-color="#3F72D7"/>
<stop offset="1" stop-color="#324EA3"/>
</linearGradient>
<linearGradient id="paint1_linear" x1="8.19824" y1="10.2168" x2="8.19824" y2="23.4768" gradientUnits="userSpaceOnUse">
<stop stop-color="#FDC2A1"/>
<stop offset="1" stop-color="#FA8F68"/>
</linearGradient>
</defs>
</svg>
